<svg height="27" viewBox="0 0 159 27" width="159" xmlns="http://www.w3.org/2000/svg"><g fill="none" fill-rule="evenodd"><g fill="#9b9b9b" fill-rule="nonzero" transform="translate(107 7)"><path d="m10.2 4.8c-.2-.3-.5-.5-.8-.7-.4-.2-.8-.3-1.2-.3-1 0-1.8.3-2.4.9s-.9 1.4-.9 2.4.3 1.8.9 2.4 1.4.9 2.4.9c.5 0 .8-.1 1.2-.3.3-.2.6-.4.8-.7l2.7 2.8c-.6.7-1.4 1.1-2.2 1.4-.9.3-1.7.4-2.5.4-1 0-2-.2-2.9-.5s-1.6-.7-2.3-1.4c-.7-.6-1.2-1.3-1.6-2.2-.4-.8-.6-1.8-.6-2.8s.2-2 .6-2.8.9-1.6 1.6-2.2 1.4-1.1 2.3-1.4 1.9-.5 2.9-.5c.8 0 1.6.1 2.5.4s1.6.7 2.2 1.4z"/><path d="m13.9 7.1c0-1 .2-2 .6-2.8s.9-1.6 1.6-2.2 1.4-1.1 2.3-1.4c.8-.3 1.8-.5 2.8-.5s2 .2 2.9.5 1.7.8 2.3 1.4c.7.6 1.2 1.3 1.6 2.2s.6 1.8.6 2.8-.2 2-.6 2.8c-.4.9-.9 1.6-1.6 2.2s-1.4 1.1-2.3 1.4-1.8.5-2.9.5c-1 0-2-.2-2.9-.5s-1.7-.8-2.3-1.4c-.7-.6-1.2-1.3-1.6-2.2-.4-.8-.5-1.6-.5-2.8zm4 0c0 1 .3 1.8.9 2.4s1.4.9 2.4.9 1.8-.3 2.4-.9.9-1.4.9-2.4-.3-1.8-.9-2.4-1.4-.9-2.4-.9-1.8.3-2.4.9-.9 1.4-.9 2.4z"/><path d="m30.9.5h3.9v1.8h.1c.1-.3.3-.5.5-.8s.5-.5.8-.7.7-.4 1.1-.5c.5 0 .9-.1 1.4-.1.9 0 1.7.2 2.5.6.7.4 1.3 1 1.6 1.8.5-.8 1-1.5 1.7-1.8.6-.4 1.5-.6 2.4-.6s1.6.1 2.2.4 1.1.7 1.4 1.2c.4.5.6 1.1.8 1.8s.2 1.4.2 2.2v7.8h-4.1v-7.7c0-.6-.1-1.1-.4-1.6-.3-.4-.7-.7-1.4-.7-.5 0-.9.1-1.2.2-.3.2-.6.4-.8.6-.2.3-.3.6-.4.9-.1.4-.1.7-.1 1.1v7h-4.1v-7-.9c0-.3-.1-.7-.2-1s-.3-.6-.5-.8-.6-.3-1.1-.3-.9.1-1.3.3c-.3.2-.6.4-.7.8-.2.3-.3.7-.3 1.1-.1.4-.1.8-.1 1.2v6.6h-4.1v-12.9z"/></g><g fill="#333" fill-rule="nonzero"><path d="m10.2 11.8c-.2-.3-.5-.5-.8-.7-.4-.2-.8-.3-1.2-.3-1 0-1.8.3-2.4.9s-.9 1.4-.9 2.4.3 1.8.9 2.4 1.4.9 2.4.9c.5 0 .8-.1 1.2-.3.3-.2.6-.4.8-.7l2.7 2.8c-.6.7-1.4 1.1-2.2 1.4-.9.3-1.7.4-2.5.4-1 0-2-.2-2.9-.5s-1.6-.7-2.3-1.4c-.7-.6-1.2-1.3-1.6-2.2-.4-.8-.6-1.8-.6-2.8s.2-2 .6-2.8.9-1.6 1.6-2.2 1.4-1.1 2.3-1.4 1.9-.5 2.9-.5c.8 0 1.6.1 2.5.4s1.6.7 2.2 1.4z"/><path d="m13.9 14.1c0-1 .2-2 .6-2.8s.9-1.6 1.6-2.2 1.4-1.1 2.3-1.4c.8-.3 1.8-.5 2.8-.5s2 .2 2.9.5 1.7.8 2.3 1.4c.7.6 1.2 1.3 1.6 2.2s.6 1.8.6 2.8-.2 2-.6 2.8c-.4.9-.9 1.6-1.6 2.2s-1.4 1.1-2.3 1.4-1.8.5-2.9.5c-1 0-2-.2-2.9-.5s-1.7-.8-2.3-1.4c-.7-.6-1.2-1.3-1.6-2.2-.4-.8-.5-1.6-.5-2.8zm4 0c0 1 .3 1.8.9 2.4s1.4.9 2.4.9 1.8-.3 2.4-.9.9-1.4.9-2.4-.3-1.8-.9-2.4-1.4-.9-2.4-.9-1.8.3-2.4.9-.9 1.4-.9 2.4z"/><path d="m30.9 7.5h3.9v1.8h.1c.1-.3.3-.5.5-.8s.5-.5.8-.7.7-.4 1.1-.5c.5 0 .9-.1 1.4-.1.9 0 1.7.2 2.5.6.7.4 1.3 1 1.6 1.8.5-.8 1-1.5 1.7-1.8.6-.4 1.5-.6 2.4-.6s1.6.1 2.2.4 1.1.7 1.4 1.2c.4.5.6 1.1.8 1.8s.2 1.4.2 2.2v7.8h-4.1v-7.7c0-.6-.1-1.1-.4-1.6-.3-.4-.7-.7-1.4-.7-.5 0-.9.1-1.2.2-.3.2-.6.4-.8.6-.2.3-.3.6-.4.9-.1.4-.1.7-.1 1.1v7h-4.1v-7-.9c0-.3-.1-.7-.2-1s-.3-.6-.5-.8-.6-.3-1.1-.3-.9.1-1.3.3c-.3.2-.6.4-.7.8-.2.3-.3.7-.3 1.1-.1.4-.1.8-.1 1.2v6.6h-4.1v-12.9z"/><path d="m54.8 7.5h3.7v1.7h.1c.2-.2.4-.5.6-.7.3-.2.6-.5.9-.7.4-.2.7-.4 1.2-.5.4 0 .9-.1 1.3-.1 1 0 1.9.2 2.7.5s1.5.8 2 1.4c.6.6 1 1.3 1.3 2.2.3.8.5 1.7.5 2.7 0 .9-.1 1.8-.4 2.6s-.7 1.6-1.2 2.2c-.5.7-1.1 1.2-1.9 1.6-.7.4-1.6.6-2.5.6s-1.6-.1-2.4-.4c-.7-.3-1.3-.7-1.8-1.3h-.1v7.6h-4.1zm3.7 6.6c0 1 .3 1.8.9 2.4s1.4.9 2.4.9 1.8-.3 2.4-.9.9-1.4.9-2.4-.3-1.8-.9-2.4-1.4-.9-2.4-.9-1.8.3-2.4.9c-.6.7-.9 1.4-.9 2.4z"/><path d="m71.6 5.8h4.1v15h-4.1z"/><path d="m79.1.2h4.1v20.5h-4.1z"/><path d="m98.6 18.4c-.7.8-1.5 1.5-2.5 1.9-1 .5-2 .7-3.1.7-1 0-2-.2-2.9-.5s-1.7-.8-2.3-1.4c-.7-.6-1.2-1.3-1.6-2.2-.4-.8-.6-1.8-.6-2.8s.2-2 .6-2.8.9-1.6 1.6-2.2 1.4-1.1 2.3-1.4c1-.3 1.9-.5 2.9-.5.9 0 1.8.2 2.6.5s1.4.8 2 1.4c.5.6.9 1.3 1.2 2.2s.4 1.8.4 2.8v1.3h-9.4c.2.8.5 1.4 1.1 1.9.5.5 1.2.7 2 .7.7 0 1.2-.1 1.7-.4s.9-.7 1.2-1.2zm-3.5-5.8c0-.7-.2-1.3-.7-1.8s-1.1-.7-1.8-.7c-.5 0-.9.1-1.2.2s-.6.3-.9.6c-.2.2-.4.5-.6.8-.1.3-.2.6-.2.9z"/></g><circle cx="104" cy="19" fill="#9b9b9b" r="2"/></g></svg>